<?xml version="1.0" encoding="utf-8"?>
<!-- Designed by Vexels.com - 2021 All Rights Reserved - https://vexels.com/terms-and-conditions/  -->
<svg version="1.1" id="Capa_1" xmlns="http://www.w3.org/2000/svg" xmlns:xlink="http://www.w3.org/1999/xlink" x="0px" y="0px"
	 viewBox="0 0 1200 1200" enable-background="new 0 0 1200 1200" xml:space="preserve">
<g>
	<circle fill="#75BACC" cx="599.999" cy="641.234" r="492.642"/>
	<g>
		<g>
			<path fill="#FFFFFF" d="M839.656,1044.492H360.342c-29.997,0-54.315-24.318-54.315-54.315V417.539
				c0-29.997,24.318-54.315,54.315-54.315h479.314c29.997,0,54.315,24.318,54.315,54.315v572.639
				C893.971,1020.174,869.654,1044.492,839.656,1044.492z"/>
			<path fill="#1C110A" d="M839.654,1072.486H360.341c-45.384,0-82.308-36.923-82.308-82.308V417.54
				c0-45.389,36.923-82.312,82.308-82.312h479.313c45.389,0,82.312,36.923,82.312,82.312v572.638
				C921.966,1035.563,885.043,1072.486,839.654,1072.486z M360.341,391.218c-14.509,0-26.317,11.808-26.317,26.322v572.638
				c0,14.509,11.808,26.317,26.317,26.317h479.313c14.514,0,26.322-11.808,26.322-26.317V417.54
				c0-14.514-11.808-26.322-26.322-26.322H360.341z"/>
		</g>
		<rect x="306.027" y="860.27" fill="#1C110A" width="587.944" height="184.222"/>
		<circle fill="#FFFFFF" cx="599.999" cy="952.381" r="43.676"/>
		<g>
			<path fill="#FFFFFF" d="M590.875,239.854L91.963,454.452c-18.624,8.011-18.624,34.416,0,42.426l498.913,214.598
				c5.825,2.505,12.424,2.505,18.249,0l498.912-214.598c18.624-8.011,18.624-34.416,0-42.426L609.124,239.854
				C603.299,237.349,596.7,237.349,590.875,239.854z"/>
			<path fill="#1C110A" d="M600,741.33c-6.885,0.005-13.771-1.379-20.189-4.137L80.898,522.598
				C62.126,514.521,50,496.099,50,475.662c0-20.432,12.126-38.854,30.898-46.931l498.913-214.594
				c12.836-5.516,27.542-5.516,40.378,0l498.913,214.594c18.773,8.077,30.898,26.499,30.898,46.931
				c0,20.437-12.125,38.859-30.898,46.936L620.189,737.193C613.776,739.951,606.885,741.33,600,741.33z M113.498,475.662
				L600,684.923l486.502-209.256L600,266.406L113.498,475.662z M601.94,265.574L601.94,265.574
				C601.935,265.574,601.935,265.574,601.94,265.574z"/>
		</g>
		<g>
			<path fill="#1C110A" d="M210.319,771.237c-15.463,0-27.995-12.532-27.995-27.995V529.353l406.611-174.899
				c14.224-6.109,30.678,0.453,36.783,14.654c6.109,14.206-0.453,30.674-14.654,36.783l-372.75,160.333v177.017
				C238.315,758.704,225.783,771.237,210.319,771.237z"/>
		</g>
	</g>
	<g>
		<g>
			<path fill="#1C110A" d="M994.579,205.624c-5.305,0-10.611-2.019-14.659-6.067c-8.091-8.096-8.091-21.222,0-29.318l47.922-47.922
				c8.096-8.096,21.222-8.096,29.318,0c8.092,8.096,8.092,21.222,0,29.318l-47.922,47.922
				C1005.19,203.605,999.885,205.624,994.579,205.624z"/>
		</g>
		<g>
			<path fill="#1C110A" d="M1094.374,282.046h-61.338c-11.448,0-20.727-9.279-20.727-20.727c0-11.448,9.279-20.726,20.727-20.726
				h61.338c11.448,0,20.726,9.279,20.726,20.726C1115.101,272.768,1105.822,282.046,1094.374,282.046z"/>
		</g>
		<g>
			<path fill="#1C110A" d="M915.857,168.916c-11.448,0-20.727-9.279-20.727-20.727V86.851c0-11.448,9.279-20.726,20.727-20.726
				s20.727,9.279,20.727,20.726v61.338C936.583,159.637,927.305,168.916,915.857,168.916z"/>
		</g>
	</g>
</g>
</svg>
